# xmcd CD database file
#
# Track frame offsets:
#	150
#	16279
#	37956
#	63271
#	84569
#	109876
#	131738
#	151963
#	165654
#	184451
#
# Disc length: 2709 seconds
#
# Revision: 0
# Processed by: cddbd v1.5.2PL0 Copyright (c) Steve Scherf et al.
# Submitted via: CDex 1.51
#
DISCID=7e0a930a
DTITLE=Clem - Should I Stay
DYEAR=2007
DGENRE=Jazz
TTITLE0=After the rain
TTITLE1=Sould I stay
TTITLE2=The dance
TTITLE3=Don't explain
TTITLE4=Every little thing
TTITLE5=Llora
TTITLE6=Boy song
TTITLE7=Do it good to me
TTITLE8=Wake up every morning
TTITLE9=Ahora en Paz
EXTD=YEAR: 2007
EXTT0=
EXTT1=
EXTT2=
EXTT3=
EXTT4=
EXTT5=
EXTT6=
EXTT7=
EXTT8=
EXTT9=
PLAYORDER=
